# xmcd CD database file
#
# Track frame offsets:
#	150
#	14606
#	32581
#	51593
#	64606
#	76857
#	98768
#	126269
#	141152
#	155545
#	170039
#	189576
#	202728
#
# Disc length: 2888 seconds
#
# Revision: 0
# Processed by: cddbd v1.5.2PL0 Copyright (c) Steve Scherf et al.
# Submitted via: CDex 1.70beta2
#
DISCID=af0b460d
DTITLE=Marshall Lawrence - The Morning After
DYEAR=2008
DGENRE=Blues
TTITLE0=Freight Train
TTITLE1=Blue Sky Is Fallin'
TTITLE2=Catfish Blues
TTITLE3=Shake It
TTITLE4=Keep On Walkin'
TTITLE5=Mockingbird Blues
TTITLE6=Long Time Gone
TTITLE7=Bye Bye Blues
TTITLE8=Dessert Table Blues
TTITLE9=Moon Goin' Down
TTITLE10=Gotta Change Our Ways
TTITLE11=Light Rain Blues
TTITLE12=Ida Mae
EXTD=YEAR: 2008
EXTT0=
EXTT1=
EXTT2=
EXTT3=
EXTT4=
EXTT5=
EXTT6=
EXTT7=
EXTT8=
EXTT9=
EXTT10=
EXTT11=
EXTT12=
PLAYORDER=
